<svg width="283" height="38" viewBox="0 0 283 38" fill="none" xmlns="http://www.w3.org/2000/svg">
<path d="M20.9625 11.8561C21.6586 11.2916 22.6718 10.8726 23.8002 10.5528C25.8925 9.9652 28.3955 9.72045 30.0265 9.58625C30.0735 9.58181 30.1206 9.57737 30.1679 9.57292C30.7916 9.51953 31.3384 9.43755 32.0166 9.33694C33.6027 9.10743 35.7641 8.78305 40.2642 8.88669C41.5469 8.68537 42.8075 8.50874 44.0957 8.35139C57.8368 6.69946 71.3434 6.80336 84.7489 7.24802C84.9159 7.23405 85.0861 7.21978 85.2586 7.20539C85.9088 7.15113 86.5967 7.09459 87.3065 7.04097C90.1508 6.82317 93.2814 6.66269 95.3833 6.90872C98.727 7.29627 100.983 7.69853 102.842 8.04946C113.439 8.57355 124.01 9.08559 134.547 9.15956C137.849 9.18299 141.153 9.16284 144.454 9.08863C147.493 9.02034 150.533 8.91877 153.57 8.78775C155.336 8.50614 157.008 8.18118 158.566 7.88035C160.748 7.45776 162.698 7.08305 164.305 6.94163C168.188 6.60065 172.591 6.93248 175.875 7.17961C176.41 7.22 176.915 7.25832 177.38 7.29092C179.979 7.08846 182.568 6.8758 185.164 6.65949C185.338 6.74954 185.514 6.84355 185.692 6.93994C187.935 8.1426 190.664 8.07584 194.941 7.97197C196.812 7.92652 198.986 7.87436 201.512 7.91547C203.167 7.94139 204.018 8.41814 204.707 8.80726C204.909 8.92172 205.099 9.0287 205.29 9.1144C205.965 9.40757 206.66 9.0624 207.469 8.65483C208.501 8.12638 209.802 7.49025 211.479 8.00601C212.977 8.4647 214.281 8.69702 215.335 8.77506C218.189 8.97332 219.702 8.13575 220.995 7.45428C221.511 7.17711 221.973 6.92657 222.444 6.78174C224.046 6.31057 226.252 6.67592 227.988 7.20916C229.308 7.63432 231.995 7.09117 234.033 6.43546C234.773 6.18881 235.843 6.14564 237.055 6.09511C238.302 6.04308 239.765 5.98112 241.34 5.66648C245.263 4.87259 247.337 4.45839 248.978 4.12717C249.458 4.0317 249.91 3.94337 250.341 3.85285C251.733 3.56516 253.434 3.28981 255.165 2.99484C257.212 2.64457 259.283 2.262 260.768 1.83161C262.654 1.79502 264.817 1.68387 265.729 1.64508L265.189 1.78437C265.975 1.71295 267.529 1.26324 269.136 0.777631C269.583 0.643245 270.035 0.505841 270.488 0.36803C272.604 -0.27508 274.996 -0.0783793 277.109 0.981934C279.223 2.04305 280.888 3.86272 281.768 6.08232C282.645 8.30374 282.675 10.7685 281.881 12.9858C281.083 15.2027 279.529 16.9799 277.539 17.9823C277.112 18.1968 276.681 18.4125 276.249 18.6282C274.675 19.3989 273.072 20.2463 270.703 21.0837C270.61 21.1003 270.34 21.1897 270.246 21.2015C267.023 22.0847 264.797 22.4303 262.367 22.8393C256.676 23.7433 251.185 24.2918 245.664 24.5565C241.83 24.736 237.981 24.8282 234.149 24.8561C233.753 24.859 233.353 24.8608 232.947 24.8627C229.786 25.5555 226.542 26.183 224.318 26.4329C222.407 26.6412 221.119 26.3591 219.907 26.12C219.084 25.9551 218.41 25.8074 217.688 25.85C217.304 25.8728 216.776 25.9211 216.131 25.9789C215.997 25.991 215.858 26.0034 215.713 26.0162C213.126 26.2517 208.974 26.5823 205.164 26.1127C203.403 25.8929 201.32 25.4314 199.348 24.99C196.527 24.3588 193.885 23.7698 192.577 23.9905C190.244 24.3791 187.587 24.137 185.236 23.9227C182.985 23.7185 181.024 23.5401 179.914 23.9589C178.58 24.4596 177.453 24.287 175.754 24.0323C174.57 23.8557 173.139 23.64 171.178 23.58C168.912 23.5108 167.321 23.2087 165.95 22.9525C164.039 22.5915 162.589 22.3206 160.462 22.9151C158.097 23.5757 155.619 24.0169 153.657 23.8648C152.762 23.7955 151.744 23.8386 150.684 23.8839C149.28 23.9439 147.803 24.0069 146.449 23.8171C145.333 23.6606 144.406 23.2178 143.583 22.8262C143.326 22.704 143.08 22.5874 142.841 22.4854C141.956 22.5115 141.071 22.5406 140.187 22.575C140.046 22.6529 139.898 22.739 139.742 22.8279C138.961 23.2742 138.002 23.8218 136.809 24.1121C134.926 24.5714 133.239 24.3537 131.481 24.1229C130.104 23.9435 128.669 23.7568 127.045 23.8798C125.929 23.964 124.663 24.1875 123.417 24.4095C121.559 24.7394 119.718 25.0663 118.441 24.929C117.957 24.8777 117.534 24.5989 117.117 24.3215C117.115 24.3198 117.113 24.3181 117.111 24.3164C117.083 24.2975 117.054 24.2792 117.026 24.2604C113.927 24.574 110.813 24.9159 107.702 25.2776C107.436 25.3614 107.167 25.4443 106.902 25.5259C105.593 25.9253 104.312 26.3152 103.503 26.834C102.632 27.396 100.349 27.7869 97.9696 28.2054C96.4022 28.4796 94.8083 28.7647 93.4889 29.1151C92.7189 29.3198 92.0077 29.0503 91.2196 28.7754C90.4962 28.5185 89.7598 28.2551 88.9834 28.3642C88.7671 28.3946 88.5432 28.4526 88.3119 28.5245C88.1201 28.5822 87.9234 28.6487 87.7217 28.7173C87.3218 28.8533 86.9019 28.9975 86.4635 29.0948C86.0505 29.1853 85.1569 29.0651 83.9463 28.9186C83.205 28.8277 82.3928 28.7246 81.5168 28.6518C79.2167 28.9618 76.969 29.2695 74.6833 29.5767C74.2218 29.8685 73.8337 30.2348 73.5394 30.6924C73.3267 31.0208 73.1617 31.4079 72.9741 31.8048C72.7247 32.3446 72.4682 32.9025 72.0995 33.3582C71.8111 33.7144 71.4578 33.8721 71.2068 33.7487C71.0898 33.6912 70.9953 33.5743 70.9096 33.4687C70.8115 33.3477 70.7241 33.2402 70.627 33.25C70.558 33.2572 70.4879 33.3522 70.4021 33.4674C70.2653 33.6512 70.0876 33.8887 69.7972 33.9166C68.7215 34.0201 67.5019 34.0345 66.3025 34.0523C64.9867 34.0706 63.6738 34.0961 62.6498 34.2464C61.4971 34.4149 59.8323 34.2186 58.168 34.034C57.0009 33.9056 55.8326 33.7836 54.8539 33.7844C53.8785 33.7867 52.9255 34.0701 51.9634 34.3542C50.8424 34.6916 49.753 35.0248 48.7877 34.8423C48.5892 34.8055 48.3103 34.473 47.9629 34.0575C47.7151 33.7632 47.4402 33.4258 47.1207 33.1233C45.912 33.271 44.7365 33.4074 43.5406 33.5429C43.5054 33.5974 43.469 33.6529 43.4329 33.7095C43.4324 33.7107 43.4319 33.712 43.4314 33.7133C42.6292 34.9889 41.5298 36.7368 39.5662 36.0918C39.0687 35.9278 38.7047 35.5387 38.3737 35.1893C38.0492 34.8462 37.7653 34.5384 37.413 34.5229C37.0029 34.5072 36.6017 34.8191 36.1451 35.1642C35.5118 35.6474 34.8196 36.1892 33.9743 35.961C33.9163 35.9455 33.8539 35.9282 33.7893 35.9114C33.1834 35.7503 32.2753 35.5183 31.276 34.8977C30.5471 34.9821 29.8077 35.0699 29.0744 35.1572C27.1633 35.3957 25.2494 35.6134 23.3323 35.8145C18.8234 36.2876 14.321 36.6695 9.7482 37.0064C7.52702 37.1659 5.21945 36.467 3.34617 34.9916C1.48776 33.5195 0.0799053 31.3838 0.0407045 29.0243C-0.104898 26.6914 0.102863 24.4026 1.27668 22.4217C2.40071 20.4531 4.17704 19.0143 6.21037 18.3659C9.52798 17.313 12.8771 16.2157 16.2159 15.136C16.3832 15.0518 16.5529 14.9687 16.7236 14.8884C17.9923 14.2906 19.096 13.3861 20.1962 12.4794C20.4482 12.2712 20.7032 12.062 20.9625 11.8561Z" fill="#FF9AFF"/>
</svg>
